<mxfile host="app.diagrams.net" agent="Mozilla/5.0 (Macintosh; Intel Mac OS X 10_15_7) AppleWebKit/537.36 (KHTML, like Gecko) Chrome/133.0.0.0 Safari/537.36" version="26.0.15">
  <diagram name="Page-1" id="MynIsumC3mEAYIClX9I6">
    <mxGraphModel dx="1830" dy="968" grid="1" gridSize="10" guides="1" tooltips="1" connect="1" arrows="1" fold="1" page="1" pageScale="1" pageWidth="3300" pageHeight="4681" math="0" shadow="0">
      <root>
        <mxCell id="0" />
        <mxCell id="1" parent="0" />
        <mxCell id="eiJciB9B7HkE7zY7H2Gf-1" value="" style="rounded=0;whiteSpace=wrap;html=1;" parent="1" vertex="1">
          <mxGeometry x="1520" y="210" width="180" height="80" as="geometry" />
        </mxCell>
        <mxCell id="eiJciB9B7HkE7zY7H2Gf-4" value="MEMBER" style="text;html=1;align=center;verticalAlign=middle;whiteSpace=wrap;rounded=0;" parent="1" vertex="1">
          <mxGeometry x="1580" y="232.5" width="60" height="35" as="geometry" />
        </mxCell>
        <mxCell id="9V06vK_lk5y7Zd8M0cyD-3" value="MEMEBERID" style="ellipse;whiteSpace=wrap;html=1;" vertex="1" parent="1">
          <mxGeometry x="1330" y="220" width="110" height="60" as="geometry" />
        </mxCell>
        <mxCell id="9V06vK_lk5y7Zd8M0cyD-4" value="NAME" style="ellipse;whiteSpace=wrap;html=1;" vertex="1" parent="1">
          <mxGeometry x="1360" y="80" width="110" height="60" as="geometry" />
        </mxCell>
        <mxCell id="9V06vK_lk5y7Zd8M0cyD-5" value="ADDRESS" style="ellipse;whiteSpace=wrap;html=1;" vertex="1" parent="1">
          <mxGeometry x="1810" y="220" width="110" height="60" as="geometry" />
        </mxCell>
        <mxCell id="9V06vK_lk5y7Zd8M0cyD-6" value="PHONE" style="ellipse;whiteSpace=wrap;html=1;" vertex="1" parent="1">
          <mxGeometry x="1555" y="60" width="110" height="60" as="geometry" />
        </mxCell>
        <mxCell id="9V06vK_lk5y7Zd8M0cyD-8" value="MaxRentals" style="ellipse;whiteSpace=wrap;html=1;" vertex="1" parent="1">
          <mxGeometry x="1780" y="80" width="110" height="60" as="geometry" />
        </mxCell>
        <mxCell id="9V06vK_lk5y7Zd8M0cyD-10" value="" style="endArrow=none;html=1;rounded=0;entryX=0;entryY=0.5;entryDx=0;entryDy=0;exitX=1;exitY=0.5;exitDx=0;exitDy=0;" edge="1" parent="1" source="9V06vK_lk5y7Zd8M0cyD-3" target="eiJciB9B7HkE7zY7H2Gf-1">
          <mxGeometry width="50" height="50" relative="1" as="geometry">
            <mxPoint x="1470" y="300" as="sourcePoint" />
            <mxPoint x="1520" y="250" as="targetPoint" />
          </mxGeometry>
        </mxCell>
        <mxCell id="9V06vK_lk5y7Zd8M0cyD-12" value="" style="endArrow=none;html=1;rounded=0;entryX=0;entryY=0;entryDx=0;entryDy=0;exitX=1;exitY=1;exitDx=0;exitDy=0;" edge="1" parent="1" source="9V06vK_lk5y7Zd8M0cyD-4" target="eiJciB9B7HkE7zY7H2Gf-1">
          <mxGeometry width="50" height="50" relative="1" as="geometry">
            <mxPoint x="1470" y="180" as="sourcePoint" />
            <mxPoint x="1550" y="180" as="targetPoint" />
          </mxGeometry>
        </mxCell>
        <mxCell id="9V06vK_lk5y7Zd8M0cyD-13" value="" style="endArrow=none;html=1;rounded=0;entryX=0.5;entryY=0;entryDx=0;entryDy=0;exitX=0.5;exitY=1;exitDx=0;exitDy=0;" edge="1" parent="1" source="9V06vK_lk5y7Zd8M0cyD-6" target="eiJciB9B7HkE7zY7H2Gf-1">
          <mxGeometry width="50" height="50" relative="1" as="geometry">
            <mxPoint x="1590" y="170" as="sourcePoint" />
            <mxPoint x="1646" y="199" as="targetPoint" />
          </mxGeometry>
        </mxCell>
        <mxCell id="9V06vK_lk5y7Zd8M0cyD-14" value="" style="endArrow=none;html=1;rounded=0;entryX=1;entryY=0.5;entryDx=0;entryDy=0;exitX=0;exitY=0.5;exitDx=0;exitDy=0;" edge="1" parent="1" source="9V06vK_lk5y7Zd8M0cyD-5" target="eiJciB9B7HkE7zY7H2Gf-1">
          <mxGeometry width="50" height="50" relative="1" as="geometry">
            <mxPoint x="1735" y="140" as="sourcePoint" />
            <mxPoint x="1747.5" y="220" as="targetPoint" />
          </mxGeometry>
        </mxCell>
        <mxCell id="9V06vK_lk5y7Zd8M0cyD-16" value="" style="endArrow=none;html=1;rounded=0;entryX=0.25;entryY=1;entryDx=0;entryDy=0;exitX=1;exitY=0;exitDx=0;exitDy=0;" edge="1" parent="1" source="9V06vK_lk5y7Zd8M0cyD-17" target="eiJciB9B7HkE7zY7H2Gf-1">
          <mxGeometry width="50" height="50" relative="1" as="geometry">
            <mxPoint x="950" y="860" as="sourcePoint" />
            <mxPoint x="1040" y="535" as="targetPoint" />
          </mxGeometry>
        </mxCell>
        <mxCell id="9V06vK_lk5y7Zd8M0cyD-17" value="RENTS" style="rhombus;whiteSpace=wrap;html=1;" vertex="1" parent="1">
          <mxGeometry x="1330" y="420" width="160" height="80" as="geometry" />
        </mxCell>
        <mxCell id="9V06vK_lk5y7Zd8M0cyD-18" value="" style="rounded=0;whiteSpace=wrap;html=1;" vertex="1" parent="1">
          <mxGeometry x="1360" y="625" width="180" height="80" as="geometry" />
        </mxCell>
        <mxCell id="9V06vK_lk5y7Zd8M0cyD-19" value="RENTAL" style="text;html=1;align=center;verticalAlign=middle;whiteSpace=wrap;rounded=0;" vertex="1" parent="1">
          <mxGeometry x="1420" y="647.5" width="60" height="35" as="geometry" />
        </mxCell>
        <mxCell id="9V06vK_lk5y7Zd8M0cyD-20" value="DateRented" style="ellipse;whiteSpace=wrap;html=1;" vertex="1" parent="1">
          <mxGeometry x="1680" y="590" width="110" height="60" as="geometry" />
        </mxCell>
        <mxCell id="9V06vK_lk5y7Zd8M0cyD-21" value="RentalID" style="ellipse;whiteSpace=wrap;html=1;" vertex="1" parent="1">
          <mxGeometry x="1200" y="510" width="110" height="60" as="geometry" />
        </mxCell>
        <mxCell id="9V06vK_lk5y7Zd8M0cyD-22" value="ItemID" style="ellipse;whiteSpace=wrap;html=1;" vertex="1" parent="1">
          <mxGeometry x="1590" y="510" width="110" height="60" as="geometry" />
        </mxCell>
        <mxCell id="9V06vK_lk5y7Zd8M0cyD-23" value="MemberID" style="ellipse;whiteSpace=wrap;html=1;" vertex="1" parent="1">
          <mxGeometry x="1100" y="682.5" width="110" height="60" as="geometry" />
        </mxCell>
        <mxCell id="9V06vK_lk5y7Zd8M0cyD-24" value="DueDate" style="ellipse;whiteSpace=wrap;html=1;" vertex="1" parent="1">
          <mxGeometry x="1120" y="600" width="110" height="60" as="geometry" />
        </mxCell>
        <mxCell id="9V06vK_lk5y7Zd8M0cyD-25" value="" style="endArrow=none;html=1;rounded=0;entryX=1;entryY=0.5;entryDx=0;entryDy=0;exitX=0;exitY=0.5;exitDx=0;exitDy=0;" edge="1" source="9V06vK_lk5y7Zd8M0cyD-20" target="9V06vK_lk5y7Zd8M0cyD-18" parent="1">
          <mxGeometry width="50" height="50" relative="1" as="geometry">
            <mxPoint x="1310" y="730" as="sourcePoint" />
            <mxPoint x="1360" y="680" as="targetPoint" />
          </mxGeometry>
        </mxCell>
        <mxCell id="9V06vK_lk5y7Zd8M0cyD-26" value="" style="endArrow=none;html=1;rounded=0;entryX=0;entryY=0;entryDx=0;entryDy=0;exitX=1;exitY=1;exitDx=0;exitDy=0;" edge="1" source="9V06vK_lk5y7Zd8M0cyD-21" target="9V06vK_lk5y7Zd8M0cyD-18" parent="1">
          <mxGeometry width="50" height="50" relative="1" as="geometry">
            <mxPoint x="1310" y="610" as="sourcePoint" />
            <mxPoint x="1390" y="610" as="targetPoint" />
          </mxGeometry>
        </mxCell>
        <mxCell id="9V06vK_lk5y7Zd8M0cyD-27" value="" style="endArrow=none;html=1;rounded=0;exitX=1;exitY=0;exitDx=0;exitDy=0;entryX=0;entryY=0.75;entryDx=0;entryDy=0;" edge="1" source="9V06vK_lk5y7Zd8M0cyD-23" target="9V06vK_lk5y7Zd8M0cyD-18" parent="1">
          <mxGeometry width="50" height="50" relative="1" as="geometry">
            <mxPoint x="1430" y="600" as="sourcePoint" />
            <mxPoint x="1370" y="680" as="targetPoint" />
          </mxGeometry>
        </mxCell>
        <mxCell id="9V06vK_lk5y7Zd8M0cyD-28" value="" style="endArrow=none;html=1;rounded=0;entryX=1;entryY=0;entryDx=0;entryDy=0;exitX=0.28;exitY=0.917;exitDx=0;exitDy=0;exitPerimeter=0;" edge="1" source="9V06vK_lk5y7Zd8M0cyD-22" target="9V06vK_lk5y7Zd8M0cyD-18" parent="1">
          <mxGeometry width="50" height="50" relative="1" as="geometry">
            <mxPoint x="1575" y="570" as="sourcePoint" />
            <mxPoint x="1587.5" y="650" as="targetPoint" />
          </mxGeometry>
        </mxCell>
        <mxCell id="9V06vK_lk5y7Zd8M0cyD-31" value="" style="endArrow=none;html=1;rounded=0;entryX=1;entryY=0.5;entryDx=0;entryDy=0;exitX=0;exitY=0.25;exitDx=0;exitDy=0;" edge="1" parent="1" source="9V06vK_lk5y7Zd8M0cyD-18" target="9V06vK_lk5y7Zd8M0cyD-24">
          <mxGeometry width="50" height="50" relative="1" as="geometry">
            <mxPoint x="1560" y="810" as="sourcePoint" />
            <mxPoint x="1616" y="889" as="targetPoint" />
          </mxGeometry>
        </mxCell>
        <mxCell id="9V06vK_lk5y7Zd8M0cyD-32" value="" style="endArrow=none;html=1;rounded=0;exitX=0.5;exitY=1;exitDx=0;exitDy=0;entryX=0.5;entryY=0;entryDx=0;entryDy=0;" edge="1" parent="1" source="9V06vK_lk5y7Zd8M0cyD-17" target="9V06vK_lk5y7Zd8M0cyD-18">
          <mxGeometry width="50" height="50" relative="1" as="geometry">
            <mxPoint x="1600" y="585" as="sourcePoint" />
            <mxPoint x="1650" y="535" as="targetPoint" />
          </mxGeometry>
        </mxCell>
        <mxCell id="9V06vK_lk5y7Zd8M0cyD-33" value="ReturnStatus" style="ellipse;whiteSpace=wrap;html=1;" vertex="1" parent="1">
          <mxGeometry x="1700" y="682.5" width="110" height="60" as="geometry" />
        </mxCell>
        <mxCell id="9V06vK_lk5y7Zd8M0cyD-34" value="" style="endArrow=none;html=1;rounded=0;entryX=0;entryY=0;entryDx=0;entryDy=0;exitX=1;exitY=1;exitDx=0;exitDy=0;" edge="1" parent="1" source="9V06vK_lk5y7Zd8M0cyD-18" target="9V06vK_lk5y7Zd8M0cyD-33">
          <mxGeometry width="50" height="50" relative="1" as="geometry">
            <mxPoint x="1540" y="725" as="sourcePoint" />
            <mxPoint x="1540" y="800" as="targetPoint" />
          </mxGeometry>
        </mxCell>
        <mxCell id="9V06vK_lk5y7Zd8M0cyD-39" value="MAKES" style="rhombus;whiteSpace=wrap;html=1;" vertex="1" parent="1">
          <mxGeometry x="1830" y="420" width="140" height="80" as="geometry" />
        </mxCell>
        <mxCell id="9V06vK_lk5y7Zd8M0cyD-40" value="" style="endArrow=none;html=1;rounded=0;entryX=1;entryY=0;entryDx=0;entryDy=0;exitX=0.5;exitY=1;exitDx=0;exitDy=0;" edge="1" parent="1" source="9V06vK_lk5y7Zd8M0cyD-8" target="eiJciB9B7HkE7zY7H2Gf-1">
          <mxGeometry width="50" height="50" relative="1" as="geometry">
            <mxPoint x="1710" y="110" as="sourcePoint" />
            <mxPoint x="1710" y="200" as="targetPoint" />
          </mxGeometry>
        </mxCell>
        <mxCell id="9V06vK_lk5y7Zd8M0cyD-42" value="" style="endArrow=none;html=1;rounded=0;entryX=0.75;entryY=1;entryDx=0;entryDy=0;exitX=0;exitY=0;exitDx=0;exitDy=0;" edge="1" parent="1" source="9V06vK_lk5y7Zd8M0cyD-39" target="eiJciB9B7HkE7zY7H2Gf-1">
          <mxGeometry width="50" height="50" relative="1" as="geometry">
            <mxPoint x="2050" y="760" as="sourcePoint" />
            <mxPoint x="2100" y="710" as="targetPoint" />
          </mxGeometry>
        </mxCell>
        <mxCell id="9V06vK_lk5y7Zd8M0cyD-44" value="" style="rounded=0;whiteSpace=wrap;html=1;" vertex="1" parent="1">
          <mxGeometry x="2040" y="580" width="180" height="80" as="geometry" />
        </mxCell>
        <mxCell id="9V06vK_lk5y7Zd8M0cyD-45" value="RESERVATION" style="text;html=1;align=center;verticalAlign=middle;whiteSpace=wrap;rounded=0;" vertex="1" parent="1">
          <mxGeometry x="2100" y="602.5" width="60" height="37.5" as="geometry" />
        </mxCell>
        <mxCell id="9V06vK_lk5y7Zd8M0cyD-48" value="" style="endArrow=none;html=1;rounded=0;entryX=1;entryY=1;entryDx=0;entryDy=0;exitX=0.5;exitY=0;exitDx=0;exitDy=0;" edge="1" parent="1" source="9V06vK_lk5y7Zd8M0cyD-44" target="9V06vK_lk5y7Zd8M0cyD-39">
          <mxGeometry width="50" height="50" relative="1" as="geometry">
            <mxPoint x="2050" y="760" as="sourcePoint" />
            <mxPoint x="2100" y="710" as="targetPoint" />
          </mxGeometry>
        </mxCell>
        <mxCell id="9V06vK_lk5y7Zd8M0cyD-50" value="ReservationID" style="ellipse;whiteSpace=wrap;html=1;" vertex="1" parent="1">
          <mxGeometry x="1840" y="590" width="110" height="60" as="geometry" />
        </mxCell>
        <mxCell id="9V06vK_lk5y7Zd8M0cyD-51" value="" style="endArrow=none;html=1;rounded=0;entryX=1;entryY=0.5;entryDx=0;entryDy=0;exitX=0;exitY=0.5;exitDx=0;exitDy=0;" edge="1" parent="1" source="9V06vK_lk5y7Zd8M0cyD-44" target="9V06vK_lk5y7Zd8M0cyD-50">
          <mxGeometry width="50" height="50" relative="1" as="geometry">
            <mxPoint x="2025" y="630.5" as="sourcePoint" />
            <mxPoint x="1790" y="507.5" as="targetPoint" />
          </mxGeometry>
        </mxCell>
        <mxCell id="9V06vK_lk5y7Zd8M0cyD-52" value="MemberID" style="ellipse;whiteSpace=wrap;html=1;" vertex="1" parent="1">
          <mxGeometry x="1900" y="697.5" width="110" height="60" as="geometry" />
        </mxCell>
        <mxCell id="9V06vK_lk5y7Zd8M0cyD-53" value="DateReserved" style="ellipse;whiteSpace=wrap;html=1;" vertex="1" parent="1">
          <mxGeometry x="2300" y="590" width="110" height="60" as="geometry" />
        </mxCell>
        <mxCell id="9V06vK_lk5y7Zd8M0cyD-54" value="MovieID" style="ellipse;whiteSpace=wrap;html=1;" vertex="1" parent="1">
          <mxGeometry x="2230" y="707.5" width="110" height="60" as="geometry" />
        </mxCell>
        <mxCell id="9V06vK_lk5y7Zd8M0cyD-55" value="" style="endArrow=none;html=1;rounded=0;entryX=1;entryY=1;entryDx=0;entryDy=0;exitX=0.406;exitY=-0.033;exitDx=0;exitDy=0;exitPerimeter=0;" edge="1" parent="1" source="9V06vK_lk5y7Zd8M0cyD-54" target="9V06vK_lk5y7Zd8M0cyD-44">
          <mxGeometry width="50" height="50" relative="1" as="geometry">
            <mxPoint x="2130" y="787.5" as="sourcePoint" />
            <mxPoint x="2120" y="781.83" as="targetPoint" />
          </mxGeometry>
        </mxCell>
        <mxCell id="9V06vK_lk5y7Zd8M0cyD-56" value="" style="endArrow=none;html=1;rounded=0;entryX=1;entryY=0;entryDx=0;entryDy=0;exitX=0;exitY=1;exitDx=0;exitDy=0;" edge="1" parent="1" source="9V06vK_lk5y7Zd8M0cyD-44" target="9V06vK_lk5y7Zd8M0cyD-52">
          <mxGeometry width="50" height="50" relative="1" as="geometry">
            <mxPoint x="2060" y="716.17" as="sourcePoint" />
            <mxPoint x="1970" y="716.17" as="targetPoint" />
          </mxGeometry>
        </mxCell>
        <mxCell id="9V06vK_lk5y7Zd8M0cyD-57" value="" style="endArrow=none;html=1;rounded=0;entryX=1;entryY=0.5;entryDx=0;entryDy=0;exitX=0;exitY=0.5;exitDx=0;exitDy=0;" edge="1" parent="1" source="9V06vK_lk5y7Zd8M0cyD-53" target="9V06vK_lk5y7Zd8M0cyD-44">
          <mxGeometry width="50" height="50" relative="1" as="geometry">
            <mxPoint x="2310" y="682.5" as="sourcePoint" />
            <mxPoint x="2220" y="682.5" as="targetPoint" />
          </mxGeometry>
        </mxCell>
        <mxCell id="9V06vK_lk5y7Zd8M0cyD-58" value="FROM" style="rhombus;whiteSpace=wrap;html=1;" vertex="1" parent="1">
          <mxGeometry x="1375" y="850" width="150" height="80" as="geometry" />
        </mxCell>
        <mxCell id="9V06vK_lk5y7Zd8M0cyD-59" value="" style="endArrow=none;html=1;rounded=0;entryX=0.5;entryY=1;entryDx=0;entryDy=0;exitX=0.5;exitY=0;exitDx=0;exitDy=0;" edge="1" parent="1" source="9V06vK_lk5y7Zd8M0cyD-58" target="9V06vK_lk5y7Zd8M0cyD-18">
          <mxGeometry width="50" height="50" relative="1" as="geometry">
            <mxPoint x="1324" y="914" as="sourcePoint" />
            <mxPoint x="1420" y="850" as="targetPoint" />
          </mxGeometry>
        </mxCell>
        <mxCell id="9V06vK_lk5y7Zd8M0cyD-61" value="" style="endArrow=none;html=1;rounded=0;entryX=0.5;entryY=1;entryDx=0;entryDy=0;exitX=0.459;exitY=0.017;exitDx=0;exitDy=0;exitPerimeter=0;" edge="1" parent="1" source="9V06vK_lk5y7Zd8M0cyD-65" target="9V06vK_lk5y7Zd8M0cyD-58">
          <mxGeometry width="50" height="50" relative="1" as="geometry">
            <mxPoint x="1500" y="1000" as="sourcePoint" />
            <mxPoint x="1480" y="1080" as="targetPoint" />
          </mxGeometry>
        </mxCell>
        <mxCell id="9V06vK_lk5y7Zd8M0cyD-65" value="" style="rounded=0;whiteSpace=wrap;html=1;" vertex="1" parent="1">
          <mxGeometry x="1370" y="1010" width="180" height="80" as="geometry" />
        </mxCell>
        <mxCell id="9V06vK_lk5y7Zd8M0cyD-66" value="STORE" style="text;html=1;align=center;verticalAlign=middle;whiteSpace=wrap;rounded=0;" vertex="1" parent="1">
          <mxGeometry x="1430" y="1032.5" width="60" height="35" as="geometry" />
        </mxCell>
        <mxCell id="9V06vK_lk5y7Zd8M0cyD-67" value="StoreID" style="ellipse;whiteSpace=wrap;html=1;" vertex="1" parent="1">
          <mxGeometry x="1200" y="1020" width="110" height="60" as="geometry" />
        </mxCell>
        <mxCell id="9V06vK_lk5y7Zd8M0cyD-68" value="" style="endArrow=none;html=1;rounded=0;entryX=1;entryY=0.5;entryDx=0;entryDy=0;exitX=0;exitY=0.5;exitDx=0;exitDy=0;" edge="1" source="9V06vK_lk5y7Zd8M0cyD-65" target="9V06vK_lk5y7Zd8M0cyD-67" parent="1">
          <mxGeometry width="50" height="50" relative="1" as="geometry">
            <mxPoint x="1405" y="1060.5" as="sourcePoint" />
            <mxPoint x="1170" y="937.5" as="targetPoint" />
          </mxGeometry>
        </mxCell>
        <mxCell id="9V06vK_lk5y7Zd8M0cyD-69" value="Name" style="ellipse;whiteSpace=wrap;html=1;" vertex="1" parent="1">
          <mxGeometry x="1580" y="950" width="110" height="60" as="geometry" />
        </mxCell>
        <mxCell id="9V06vK_lk5y7Zd8M0cyD-71" value="Location" style="ellipse;whiteSpace=wrap;html=1;" vertex="1" parent="1">
          <mxGeometry x="1630" y="1020" width="110" height="60" as="geometry" />
        </mxCell>
        <mxCell id="9V06vK_lk5y7Zd8M0cyD-72" value="" style="endArrow=none;html=1;rounded=0;exitX=0;exitY=0.5;exitDx=0;exitDy=0;entryX=1;entryY=0.5;entryDx=0;entryDy=0;" edge="1" source="9V06vK_lk5y7Zd8M0cyD-71" target="9V06vK_lk5y7Zd8M0cyD-65" parent="1">
          <mxGeometry width="50" height="50" relative="1" as="geometry">
            <mxPoint x="1510" y="1217.5" as="sourcePoint" />
            <mxPoint x="1640" y="1040" as="targetPoint" />
          </mxGeometry>
        </mxCell>
        <mxCell id="9V06vK_lk5y7Zd8M0cyD-73" value="" style="endArrow=none;html=1;rounded=0;entryX=0;entryY=0.5;entryDx=0;entryDy=0;exitX=0.75;exitY=0;exitDx=0;exitDy=0;" edge="1" source="9V06vK_lk5y7Zd8M0cyD-65" target="9V06vK_lk5y7Zd8M0cyD-69" parent="1">
          <mxGeometry width="50" height="50" relative="1" as="geometry">
            <mxPoint x="1420" y="1090" as="sourcePoint" />
            <mxPoint x="1350" y="1146.17" as="targetPoint" />
          </mxGeometry>
        </mxCell>
        <mxCell id="9V06vK_lk5y7Zd8M0cyD-76" value="" style="endArrow=classic;html=1;rounded=0;exitX=0.5;exitY=1;exitDx=0;exitDy=0;entryX=0.5;entryY=0;entryDx=0;entryDy=0;" edge="1" parent="1" source="9V06vK_lk5y7Zd8M0cyD-18" target="9V06vK_lk5y7Zd8M0cyD-58">
          <mxGeometry width="50" height="50" relative="1" as="geometry">
            <mxPoint x="1990" y="980" as="sourcePoint" />
            <mxPoint x="1650" y="900" as="targetPoint" />
          </mxGeometry>
        </mxCell>
        <mxCell id="9V06vK_lk5y7Zd8M0cyD-81" value="INVENTORY" style="rounded=0;whiteSpace=wrap;html=1;" vertex="1" parent="1">
          <mxGeometry x="1670" y="1290" width="180" height="80" as="geometry" />
        </mxCell>
        <mxCell id="9V06vK_lk5y7Zd8M0cyD-84" value="InventoryID" style="ellipse;whiteSpace=wrap;html=1;" vertex="1" parent="1">
          <mxGeometry x="1780" y="1160" width="110" height="60" as="geometry" />
        </mxCell>
        <mxCell id="9V06vK_lk5y7Zd8M0cyD-86" value="MovieID" style="ellipse;whiteSpace=wrap;html=1;" vertex="1" parent="1">
          <mxGeometry x="1705" y="1440" width="110" height="60" as="geometry" />
        </mxCell>
        <mxCell id="9V06vK_lk5y7Zd8M0cyD-87" value="StoreID" style="ellipse;whiteSpace=wrap;html=1;" vertex="1" parent="1">
          <mxGeometry x="1470" y="1300" width="110" height="60" as="geometry" />
        </mxCell>
        <mxCell id="9V06vK_lk5y7Zd8M0cyD-89" value="" style="endArrow=none;html=1;rounded=0;entryX=0.75;entryY=0;entryDx=0;entryDy=0;exitX=0.5;exitY=1;exitDx=0;exitDy=0;" edge="1" source="9V06vK_lk5y7Zd8M0cyD-84" target="9V06vK_lk5y7Zd8M0cyD-81" parent="1">
          <mxGeometry width="50" height="50" relative="1" as="geometry">
            <mxPoint x="1620" y="1300" as="sourcePoint" />
            <mxPoint x="1700" y="1300" as="targetPoint" />
          </mxGeometry>
        </mxCell>
        <mxCell id="9V06vK_lk5y7Zd8M0cyD-90" value="" style="endArrow=none;html=1;rounded=0;entryX=0.5;entryY=1;entryDx=0;entryDy=0;exitX=0.5;exitY=0;exitDx=0;exitDy=0;" edge="1" source="9V06vK_lk5y7Zd8M0cyD-86" target="9V06vK_lk5y7Zd8M0cyD-81" parent="1">
          <mxGeometry width="50" height="50" relative="1" as="geometry">
            <mxPoint x="1740" y="1290" as="sourcePoint" />
            <mxPoint x="1796" y="1319" as="targetPoint" />
          </mxGeometry>
        </mxCell>
        <mxCell id="9V06vK_lk5y7Zd8M0cyD-92" value="" style="endArrow=none;html=1;rounded=0;entryX=1;entryY=0.5;entryDx=0;entryDy=0;exitX=0;exitY=0.5;exitDx=0;exitDy=0;" edge="1" source="9V06vK_lk5y7Zd8M0cyD-81" target="9V06vK_lk5y7Zd8M0cyD-87" parent="1">
          <mxGeometry width="50" height="50" relative="1" as="geometry">
            <mxPoint x="1870" y="1500" as="sourcePoint" />
            <mxPoint x="1926" y="1579" as="targetPoint" />
          </mxGeometry>
        </mxCell>
        <mxCell id="9V06vK_lk5y7Zd8M0cyD-93" value="CopiesAvailable" style="ellipse;whiteSpace=wrap;html=1;" vertex="1" parent="1">
          <mxGeometry x="1930" y="1300" width="110" height="60" as="geometry" />
        </mxCell>
        <mxCell id="9V06vK_lk5y7Zd8M0cyD-94" value="" style="endArrow=none;html=1;rounded=0;entryX=0;entryY=0.5;entryDx=0;entryDy=0;exitX=1;exitY=0.5;exitDx=0;exitDy=0;" edge="1" source="9V06vK_lk5y7Zd8M0cyD-81" target="9V06vK_lk5y7Zd8M0cyD-93" parent="1">
          <mxGeometry width="50" height="50" relative="1" as="geometry">
            <mxPoint x="1850" y="1415" as="sourcePoint" />
            <mxPoint x="1850" y="1490" as="targetPoint" />
          </mxGeometry>
        </mxCell>
        <mxCell id="9V06vK_lk5y7Zd8M0cyD-123" value="" style="rounded=0;whiteSpace=wrap;html=1;" vertex="1" parent="1">
          <mxGeometry x="2370" y="1360" width="180" height="80" as="geometry" />
        </mxCell>
        <mxCell id="9V06vK_lk5y7Zd8M0cyD-124" value="MOVIE" style="text;html=1;align=center;verticalAlign=middle;whiteSpace=wrap;rounded=0;" vertex="1" parent="1">
          <mxGeometry x="2430" y="1382.5" width="60" height="35" as="geometry" />
        </mxCell>
        <mxCell id="9V06vK_lk5y7Zd8M0cyD-125" value="Genre" style="ellipse;whiteSpace=wrap;html=1;" vertex="1" parent="1">
          <mxGeometry x="2680" y="1480" width="110" height="60" as="geometry" />
        </mxCell>
        <mxCell id="9V06vK_lk5y7Zd8M0cyD-126" value="MovieID" style="ellipse;whiteSpace=wrap;html=1;" vertex="1" parent="1">
          <mxGeometry x="2250" y="1227.5" width="110" height="60" as="geometry" />
        </mxCell>
        <mxCell id="9V06vK_lk5y7Zd8M0cyD-127" value="Format" style="ellipse;whiteSpace=wrap;html=1;" vertex="1" parent="1">
          <mxGeometry x="2570" y="1270" width="110" height="60" as="geometry" />
        </mxCell>
        <mxCell id="9V06vK_lk5y7Zd8M0cyD-128" value="Studio" style="ellipse;whiteSpace=wrap;html=1;" vertex="1" parent="1">
          <mxGeometry x="2250" y="1530" width="110" height="60" as="geometry" />
        </mxCell>
        <mxCell id="9V06vK_lk5y7Zd8M0cyD-129" value="Title" style="ellipse;whiteSpace=wrap;html=1;" vertex="1" parent="1">
          <mxGeometry x="2130" y="1500" width="110" height="60" as="geometry" />
        </mxCell>
        <mxCell id="9V06vK_lk5y7Zd8M0cyD-130" value="" style="endArrow=none;html=1;rounded=0;entryX=1;entryY=1;entryDx=0;entryDy=0;exitX=0;exitY=0.5;exitDx=0;exitDy=0;" edge="1" source="9V06vK_lk5y7Zd8M0cyD-125" target="9V06vK_lk5y7Zd8M0cyD-123" parent="1">
          <mxGeometry width="50" height="50" relative="1" as="geometry">
            <mxPoint x="2350" y="1600" as="sourcePoint" />
            <mxPoint x="2400" y="1550" as="targetPoint" />
          </mxGeometry>
        </mxCell>
        <mxCell id="9V06vK_lk5y7Zd8M0cyD-131" value="" style="endArrow=none;html=1;rounded=0;entryX=0;entryY=0;entryDx=0;entryDy=0;exitX=1;exitY=1;exitDx=0;exitDy=0;" edge="1" source="9V06vK_lk5y7Zd8M0cyD-126" target="9V06vK_lk5y7Zd8M0cyD-123" parent="1">
          <mxGeometry width="50" height="50" relative="1" as="geometry">
            <mxPoint x="2350" y="1480" as="sourcePoint" />
            <mxPoint x="2430" y="1480" as="targetPoint" />
          </mxGeometry>
        </mxCell>
        <mxCell id="9V06vK_lk5y7Zd8M0cyD-132" value="" style="endArrow=none;html=1;rounded=0;entryX=0.25;entryY=1;entryDx=0;entryDy=0;exitX=1;exitY=0;exitDx=0;exitDy=0;" edge="1" source="9V06vK_lk5y7Zd8M0cyD-128" target="9V06vK_lk5y7Zd8M0cyD-123" parent="1">
          <mxGeometry width="50" height="50" relative="1" as="geometry">
            <mxPoint x="2470" y="1470" as="sourcePoint" />
            <mxPoint x="2526" y="1499" as="targetPoint" />
          </mxGeometry>
        </mxCell>
        <mxCell id="9V06vK_lk5y7Zd8M0cyD-133" value="" style="endArrow=none;html=1;rounded=0;entryX=1;entryY=0;entryDx=0;entryDy=0;exitX=0;exitY=1;exitDx=0;exitDy=0;" edge="1" source="9V06vK_lk5y7Zd8M0cyD-127" target="9V06vK_lk5y7Zd8M0cyD-123" parent="1">
          <mxGeometry width="50" height="50" relative="1" as="geometry">
            <mxPoint x="2615" y="1440" as="sourcePoint" />
            <mxPoint x="2627.5" y="1520" as="targetPoint" />
          </mxGeometry>
        </mxCell>
        <mxCell id="9V06vK_lk5y7Zd8M0cyD-134" value="" style="endArrow=none;html=1;rounded=0;entryX=1;entryY=0;entryDx=0;entryDy=0;exitX=0;exitY=1;exitDx=0;exitDy=0;" edge="1" source="9V06vK_lk5y7Zd8M0cyD-123" target="9V06vK_lk5y7Zd8M0cyD-129" parent="1">
          <mxGeometry width="50" height="50" relative="1" as="geometry">
            <mxPoint x="2600" y="1680" as="sourcePoint" />
            <mxPoint x="2656" y="1759" as="targetPoint" />
          </mxGeometry>
        </mxCell>
        <mxCell id="9V06vK_lk5y7Zd8M0cyD-136" value="Director" style="ellipse;whiteSpace=wrap;html=1;" vertex="1" parent="1">
          <mxGeometry x="2560" y="1530" width="110" height="60" as="geometry" />
        </mxCell>
        <mxCell id="9V06vK_lk5y7Zd8M0cyD-137" value="" style="endArrow=none;html=1;rounded=0;entryX=0;entryY=0;entryDx=0;entryDy=0;exitX=0.75;exitY=1;exitDx=0;exitDy=0;" edge="1" source="9V06vK_lk5y7Zd8M0cyD-123" target="9V06vK_lk5y7Zd8M0cyD-136" parent="1">
          <mxGeometry width="50" height="50" relative="1" as="geometry">
            <mxPoint x="2580" y="1595" as="sourcePoint" />
            <mxPoint x="2580" y="1670" as="targetPoint" />
          </mxGeometry>
        </mxCell>
        <mxCell id="9V06vK_lk5y7Zd8M0cyD-142" value="ChargePerDay" style="ellipse;whiteSpace=wrap;html=1;" vertex="1" parent="1">
          <mxGeometry x="2405" y="1530" width="110" height="60" as="geometry" />
        </mxCell>
        <mxCell id="9V06vK_lk5y7Zd8M0cyD-143" value="" style="endArrow=none;html=1;rounded=0;entryX=0.5;entryY=0;entryDx=0;entryDy=0;exitX=0.5;exitY=1;exitDx=0;exitDy=0;" edge="1" parent="1" source="9V06vK_lk5y7Zd8M0cyD-123" target="9V06vK_lk5y7Zd8M0cyD-142">
          <mxGeometry width="50" height="50" relative="1" as="geometry">
            <mxPoint x="2350" y="1440" as="sourcePoint" />
            <mxPoint x="2400" y="1390" as="targetPoint" />
          </mxGeometry>
        </mxCell>
        <mxCell id="9V06vK_lk5y7Zd8M0cyD-146" value="for" style="rhombus;whiteSpace=wrap;html=1;" vertex="1" parent="1">
          <mxGeometry x="2130" y="820" width="150" height="80" as="geometry" />
        </mxCell>
        <mxCell id="9V06vK_lk5y7Zd8M0cyD-147" value="" style="endArrow=none;html=1;rounded=0;entryX=0.5;entryY=1;entryDx=0;entryDy=0;exitX=0.5;exitY=0;exitDx=0;exitDy=0;" edge="1" parent="1" source="9V06vK_lk5y7Zd8M0cyD-146" target="9V06vK_lk5y7Zd8M0cyD-44">
          <mxGeometry width="50" height="50" relative="1" as="geometry">
            <mxPoint x="2120" y="960" as="sourcePoint" />
            <mxPoint x="2170" y="910" as="targetPoint" />
          </mxGeometry>
        </mxCell>
        <mxCell id="9V06vK_lk5y7Zd8M0cyD-148" value="" style="endArrow=none;html=1;rounded=0;entryX=0.5;entryY=1;entryDx=0;entryDy=0;exitX=0.5;exitY=0;exitDx=0;exitDy=0;" edge="1" parent="1" source="9V06vK_lk5y7Zd8M0cyD-123" target="9V06vK_lk5y7Zd8M0cyD-146">
          <mxGeometry width="50" height="50" relative="1" as="geometry">
            <mxPoint x="2495" y="1470" as="sourcePoint" />
            <mxPoint x="2405" y="1280" as="targetPoint" />
          </mxGeometry>
        </mxCell>
        <mxCell id="9V06vK_lk5y7Zd8M0cyD-150" value="TRACKS" style="rhombus;whiteSpace=wrap;html=1;" vertex="1" parent="1">
          <mxGeometry x="2040" y="1382.5" width="150" height="80" as="geometry" />
        </mxCell>
        <mxCell id="9V06vK_lk5y7Zd8M0cyD-151" value="" style="endArrow=none;html=1;rounded=0;exitX=1;exitY=1;exitDx=0;exitDy=0;entryX=0;entryY=0.5;entryDx=0;entryDy=0;" edge="1" parent="1" source="9V06vK_lk5y7Zd8M0cyD-81" target="9V06vK_lk5y7Zd8M0cyD-150">
          <mxGeometry width="50" height="50" relative="1" as="geometry">
            <mxPoint x="2120" y="1120" as="sourcePoint" />
            <mxPoint x="2170" y="1070" as="targetPoint" />
          </mxGeometry>
        </mxCell>
        <mxCell id="9V06vK_lk5y7Zd8M0cyD-152" value="" style="endArrow=none;html=1;rounded=0;exitX=1;exitY=0.5;exitDx=0;exitDy=0;entryX=0;entryY=0.5;entryDx=0;entryDy=0;" edge="1" parent="1" source="9V06vK_lk5y7Zd8M0cyD-150" target="9V06vK_lk5y7Zd8M0cyD-123">
          <mxGeometry width="50" height="50" relative="1" as="geometry">
            <mxPoint x="2120" y="1120" as="sourcePoint" />
            <mxPoint x="2170" y="1070" as="targetPoint" />
          </mxGeometry>
        </mxCell>
        <mxCell id="9V06vK_lk5y7Zd8M0cyD-168" value="" style="rounded=0;whiteSpace=wrap;html=1;" vertex="1" parent="1">
          <mxGeometry x="730" y="1265" width="180" height="80" as="geometry" />
        </mxCell>
        <mxCell id="9V06vK_lk5y7Zd8M0cyD-169" value="PLAYER" style="text;html=1;align=center;verticalAlign=middle;whiteSpace=wrap;rounded=0;" vertex="1" parent="1">
          <mxGeometry x="790" y="1287.5" width="70" height="42.5" as="geometry" />
        </mxCell>
        <mxCell id="9V06vK_lk5y7Zd8M0cyD-171" value="StoreID" style="ellipse;whiteSpace=wrap;html=1;" vertex="1" parent="1">
          <mxGeometry x="765" y="1090" width="110" height="60" as="geometry" />
        </mxCell>
        <mxCell id="9V06vK_lk5y7Zd8M0cyD-172" value="Status" style="ellipse;whiteSpace=wrap;html=1;" vertex="1" parent="1">
          <mxGeometry x="980" y="1370" width="110" height="60" as="geometry" />
        </mxCell>
        <mxCell id="9V06vK_lk5y7Zd8M0cyD-173" value="PlayerID" style="ellipse;whiteSpace=wrap;html=1;" vertex="1" parent="1">
          <mxGeometry x="470" y="1322.5" width="110" height="60" as="geometry" />
        </mxCell>
        <mxCell id="9V06vK_lk5y7Zd8M0cyD-174" value="Type" style="ellipse;whiteSpace=wrap;html=1;" vertex="1" parent="1">
          <mxGeometry x="490" y="1240" width="110" height="60" as="geometry" />
        </mxCell>
        <mxCell id="9V06vK_lk5y7Zd8M0cyD-176" value="" style="endArrow=none;html=1;rounded=0;entryX=0.5;entryY=0;entryDx=0;entryDy=0;exitX=0.5;exitY=1;exitDx=0;exitDy=0;" edge="1" source="9V06vK_lk5y7Zd8M0cyD-171" target="9V06vK_lk5y7Zd8M0cyD-168" parent="1">
          <mxGeometry width="50" height="50" relative="1" as="geometry">
            <mxPoint x="680" y="1250" as="sourcePoint" />
            <mxPoint x="760" y="1250" as="targetPoint" />
          </mxGeometry>
        </mxCell>
        <mxCell id="9V06vK_lk5y7Zd8M0cyD-177" value="" style="endArrow=none;html=1;rounded=0;exitX=1;exitY=0.5;exitDx=0;exitDy=0;entryX=0;entryY=0.75;entryDx=0;entryDy=0;" edge="1" source="9V06vK_lk5y7Zd8M0cyD-173" target="9V06vK_lk5y7Zd8M0cyD-168" parent="1">
          <mxGeometry width="50" height="50" relative="1" as="geometry">
            <mxPoint x="800" y="1240" as="sourcePoint" />
            <mxPoint x="740" y="1320" as="targetPoint" />
          </mxGeometry>
        </mxCell>
        <mxCell id="9V06vK_lk5y7Zd8M0cyD-178" value="" style="endArrow=none;html=1;rounded=0;entryX=1;entryY=1;entryDx=0;entryDy=0;exitX=0;exitY=0;exitDx=0;exitDy=0;" edge="1" source="9V06vK_lk5y7Zd8M0cyD-172" target="9V06vK_lk5y7Zd8M0cyD-168" parent="1">
          <mxGeometry width="50" height="50" relative="1" as="geometry">
            <mxPoint x="945" y="1210" as="sourcePoint" />
            <mxPoint x="957.5" y="1290" as="targetPoint" />
          </mxGeometry>
        </mxCell>
        <mxCell id="9V06vK_lk5y7Zd8M0cyD-179" value="" style="endArrow=none;html=1;rounded=0;entryX=1;entryY=0.5;entryDx=0;entryDy=0;exitX=0;exitY=0.25;exitDx=0;exitDy=0;" edge="1" source="9V06vK_lk5y7Zd8M0cyD-168" target="9V06vK_lk5y7Zd8M0cyD-174" parent="1">
          <mxGeometry width="50" height="50" relative="1" as="geometry">
            <mxPoint x="930" y="1450" as="sourcePoint" />
            <mxPoint x="986" y="1529" as="targetPoint" />
          </mxGeometry>
        </mxCell>
        <mxCell id="9V06vK_lk5y7Zd8M0cyD-188" value="INCLUDES" style="rhombus;whiteSpace=wrap;html=1;" vertex="1" parent="1">
          <mxGeometry x="1060" y="860" width="150" height="80" as="geometry" />
        </mxCell>
        <mxCell id="9V06vK_lk5y7Zd8M0cyD-189" value="" style="endArrow=none;html=1;rounded=0;entryX=0;entryY=1;entryDx=0;entryDy=0;exitX=1;exitY=0;exitDx=0;exitDy=0;" edge="1" parent="1" source="9V06vK_lk5y7Zd8M0cyD-188" target="9V06vK_lk5y7Zd8M0cyD-18">
          <mxGeometry width="50" height="50" relative="1" as="geometry">
            <mxPoint x="1670" y="810" as="sourcePoint" />
            <mxPoint x="1720" y="760" as="targetPoint" />
          </mxGeometry>
        </mxCell>
        <mxCell id="9V06vK_lk5y7Zd8M0cyD-190" value="" style="endArrow=none;html=1;rounded=0;entryX=0;entryY=1;entryDx=0;entryDy=0;exitX=1;exitY=0;exitDx=0;exitDy=0;" edge="1" parent="1" source="9V06vK_lk5y7Zd8M0cyD-168" target="9V06vK_lk5y7Zd8M0cyD-188">
          <mxGeometry width="50" height="50" relative="1" as="geometry">
            <mxPoint x="1670" y="810" as="sourcePoint" />
            <mxPoint x="1720" y="760" as="targetPoint" />
          </mxGeometry>
        </mxCell>
        <mxCell id="9V06vK_lk5y7Zd8M0cyD-193" value="HAS" style="rhombus;whiteSpace=wrap;html=1;" vertex="1" parent="1">
          <mxGeometry x="1225" y="1207.5" width="150" height="80" as="geometry" />
        </mxCell>
        <mxCell id="9V06vK_lk5y7Zd8M0cyD-194" value="" style="endArrow=none;html=1;rounded=0;entryX=0.5;entryY=1;entryDx=0;entryDy=0;exitX=0.5;exitY=0;exitDx=0;exitDy=0;" edge="1" parent="1" source="9V06vK_lk5y7Zd8M0cyD-193" target="9V06vK_lk5y7Zd8M0cyD-65">
          <mxGeometry width="50" height="50" relative="1" as="geometry">
            <mxPoint x="1670" y="1050" as="sourcePoint" />
            <mxPoint x="1720" y="1000" as="targetPoint" />
          </mxGeometry>
        </mxCell>
        <mxCell id="9V06vK_lk5y7Zd8M0cyD-195" value="" style="endArrow=none;html=1;rounded=0;entryX=1;entryY=0.5;entryDx=0;entryDy=0;exitX=0;exitY=0;exitDx=0;exitDy=0;" edge="1" parent="1" source="9V06vK_lk5y7Zd8M0cyD-81" target="9V06vK_lk5y7Zd8M0cyD-193">
          <mxGeometry width="50" height="50" relative="1" as="geometry">
            <mxPoint x="1670" y="1050" as="sourcePoint" />
            <mxPoint x="1720" y="1000" as="targetPoint" />
          </mxGeometry>
        </mxCell>
        <mxCell id="9V06vK_lk5y7Zd8M0cyD-196" value="" style="endArrow=none;html=1;rounded=0;entryX=0;entryY=0.5;entryDx=0;entryDy=0;exitX=1;exitY=0.5;exitDx=0;exitDy=0;" edge="1" parent="1" source="9V06vK_lk5y7Zd8M0cyD-168" target="9V06vK_lk5y7Zd8M0cyD-193">
          <mxGeometry width="50" height="50" relative="1" as="geometry">
            <mxPoint x="1670" y="1050" as="sourcePoint" />
            <mxPoint x="1720" y="1000" as="targetPoint" />
          </mxGeometry>
        </mxCell>
        <mxCell id="9V06vK_lk5y7Zd8M0cyD-197" value="" style="endArrow=none;html=1;rounded=0;entryX=0.75;entryY=1;entryDx=0;entryDy=0;exitX=0;exitY=0;exitDx=0;exitDy=0;" edge="1" parent="1" source="9V06vK_lk5y7Zd8M0cyD-198" target="9V06vK_lk5y7Zd8M0cyD-18">
          <mxGeometry width="50" height="50" relative="1" as="geometry">
            <mxPoint x="1950" y="1060" as="sourcePoint" />
            <mxPoint x="1910" y="940" as="targetPoint" />
          </mxGeometry>
        </mxCell>
        <mxCell id="9V06vK_lk5y7Zd8M0cyD-198" value="INCLUDES" style="rhombus;whiteSpace=wrap;html=1;" vertex="1" parent="1">
          <mxGeometry x="1840" y="987.5" width="150" height="80" as="geometry" />
        </mxCell>
        <mxCell id="9V06vK_lk5y7Zd8M0cyD-199" value="" style="endArrow=none;html=1;rounded=0;entryX=1;entryY=1;entryDx=0;entryDy=0;exitX=0;exitY=0.25;exitDx=0;exitDy=0;" edge="1" parent="1" source="9V06vK_lk5y7Zd8M0cyD-123" target="9V06vK_lk5y7Zd8M0cyD-198">
          <mxGeometry width="50" height="50" relative="1" as="geometry">
            <mxPoint x="2333" y="1360" as="sourcePoint" />
            <mxPoint x="1950" y="1057" as="targetPoint" />
          </mxGeometry>
        </mxCell>
      </root>
    </mxGraphModel>
  </diagram>
</mxfile>
